<svg width="15" height="15" viewBox="0 0 15 15" fill="none" xmlns="http://www.w3.org/2000/svg">
<path d="M9.67355 14.002H11.6906C12.0355 14.002 12.3337 13.7064 12.3337 13.3219V6.72999V6.12644L12.7605 6.55322L14.0039 7.79667C14.1746 7.96729 14.4512 7.96737 14.622 7.79667L9.67355 14.002ZM9.67355 14.002V9.40498C9.67355 9.06979 9.41896 8.81518 9.08374 8.81518H5.98494C5.68203 8.81518 5.36078 9.03954 5.36078 9.40498V14.002H3.34371C2.97973 14.002 2.66628 13.6887 2.66628 13.3219V6.75417V6.15058L2.2395 6.57741L0.996148 7.82088C0.99613 7.8209 0.996112 7.82092 0.996095 7.82094C0.996078 7.82095 0.996062 7.82097 0.996046 7.82098C0.910526 7.90636 0.79913 7.94894 0.687026 7.94894C0.574694 7.94894 0.463315 7.90629 0.377997 7.82098C0.207334 7.65031 0.207334 7.37358 0.377997 7.20292L7.20294 0.377975C7.20295 0.377971 7.20295 0.377968 7.20295 0.377964C7.28488 0.296054 7.39608 0.25 7.51198 0.25C7.62789 0.25 7.73911 0.296062 7.82101 0.377964L14.6218 7.17874C14.7925 7.34949 14.7926 7.62607 14.622 7.79663L9.67355 14.002Z" stroke="#DADADA" stroke-width="0.5"/>
</svg>
 