<svg width="11" height="11" viewBox="0 0 11 11" fill="none" xmlns="http://www.w3.org/2000/svg">
<path id="PrivateProfile" d="M6.2857 6.94362C6.28489 6.83665 6.35223 6.74103 6.4532 6.70574C7.44878 6.35777 8.21976 5.55791 8.53089 4.55042C8.84183 3.54294 8.65584 2.44773 8.02981 1.59923L6.2857 6.94362ZM6.2857 6.94362C6.2865 7.05058 6.35527 7.14518 6.45676 7.17895L9.41554 8.16341M6.2857 6.94362L9.41554 8.16341M9.41554 8.16341C9.41564 8.16344 9.41573 8.16347 9.41582 8.1635C9.71985 8.26532 9.98431 8.45944 10.1723 8.71898C10.3603 8.97847 10.4623 9.2902 10.4643 9.61055V10.1198C10.4643 10.31 10.31 10.4643 10.1198 10.4643H0.594519C0.407124 10.4643 0.254297 10.3147 0.25 10.1277V9.61992C0.25 9.29799 0.351167 8.984 0.539351 8.72272L0.539383 8.72268C0.727537 8.46132 0.993109 8.26592 1.29862 8.16365C1.29868 8.16363 1.29873 8.16361 1.29879 8.16359L4.25759 7.17913C4.35908 7.14536 4.42785 7.05076 4.42865 6.9438C4.42946 6.83683 4.36212 6.74121 4.26115 6.70591C3.26559 6.35794 2.49459 5.55792 2.18346 4.55042L9.41554 8.16341ZM5.35717 0.25C6.41167 0.25 7.4036 0.750721 8.0298 1.5992L2.18345 4.55038C1.87251 3.54291 2.05853 2.4477 2.68455 1.5992C3.31075 0.750681 4.30267 0.25 5.35717 0.25Z" stroke="#ADADAD" stroke-width="0.5" stroke-linejoin="round"/>
</svg>
