<svg width="29" height="29" viewBox="0 0 29 29" fill="none" xmlns="http://www.w3.org/2000/svg">
<g id="Icon_Home" filter="url(#filter0_dd_134_717)">
<path d="M20.7986 13.002L13.9978 6.20119C13.869 6.07238 13.6942 6 13.512 6C13.3298 6 13.155 6.07238 13.0262 6.20119L6.20122 13.0261C5.93293 13.2944 5.93293 13.7295 6.20122 13.9978C6.3353 14.1318 6.5111 14.1989 6.68703 14.1989C6.86282 14.1989 7.03861 14.1318 7.17283 13.9978L8.41628 12.7542V19.3219C8.41628 19.8261 8.84098 20.252 9.34371 20.252H11.6108V15.405C11.6108 15.2078 11.7878 15.0652 11.9849 15.0652H15.0837C15.2809 15.0652 15.4235 15.2079 15.4235 15.405V20.252H17.6906C18.183 20.252 18.5837 19.8348 18.5837 19.3219V12.73L19.8272 13.9734C20.0955 14.2417 20.5304 14.2417 20.7988 13.9734C21.0671 13.7052 21.0669 13.2703 20.7986 13.002Z" fill="#31353C"/>
<path d="M15.6735 20.002H17.6906C18.0355 20.002 18.3337 19.7064 18.3337 19.3219V12.73V12.1264L18.7605 12.5532L20.0039 13.7967C20.1746 13.9673 20.4512 13.9674 20.622 13.7967L15.6735 20.002ZM15.6735 20.002V15.405C15.6735 15.0698 15.419 14.8152 15.0837 14.8152H11.9849C11.682 14.8152 11.3608 15.0395 11.3608 15.405V20.002H9.34371C8.97973 20.002 8.66628 19.6887 8.66628 19.3219V12.7542V12.1506L8.2395 12.5774L6.99615 13.8209C6.99613 13.8209 6.99611 13.8209 6.99609 13.8209C6.99608 13.821 6.99606 13.821 6.99605 13.821C6.91053 13.9064 6.79913 13.9489 6.68703 13.9489C6.57469 13.9489 6.46331 13.9063 6.378 13.821C6.20733 13.6503 6.20733 13.3736 6.378 13.2029L13.2029 6.37797C13.2029 6.37797 13.2029 6.37797 13.203 6.37796C13.2849 6.29605 13.3961 6.25 13.512 6.25C13.6279 6.25 13.7391 6.29606 13.821 6.37796L20.6218 13.1787C20.7925 13.3495 20.7926 13.6261 20.622 13.7966L15.6735 20.002Z" stroke="url(#paint0_radial_134_717)" stroke-width="0.5"/>
</g>
<defs>
<filter id="filter0_dd_134_717" x="0.5" y="0.5" width="27.9999" height="27.752" filterUnits="userSpaceOnUse" color-interpolation-filters="sRGB">
<feFlood flood-opacity="0" result="BackgroundImageFix"/>
<feColorMatrix in="SourceAlpha" type="matrix" values="0 0 0 0 0 0 0 0 0 0 0 0 0 0 0 0 0 0 127 0" result="hardAlpha"/>
<feOffset dx="-2" dy="-2"/>
<feGaussianBlur stdDeviation="1.75"/>
<feColorMatrix type="matrix" values="0 0 0 0 0.185417 0 0 0 0 0.211367 0 0 0 0 0.333333 0 0 0 1 0"/>
<feBlend mode="normal" in2="BackgroundImageFix" result="effect1_dropShadow_134_717"/>
<feColorMatrix in="SourceAlpha" type="matrix" values="0 0 0 0 0 0 0 0 0 0 0 0 0 0 0 0 0 0 127 0" result="hardAlpha"/>
<feMorphology radius="2" operator="dilate" in="SourceAlpha" result="effect2_dropShadow_134_717"/>
<feOffset dx="2" dy="2.5"/>
<feGaussianBlur stdDeviation="1.75"/>
<feColorMatrix type="matrix" values="0 0 0 0 0.123125 0 0 0 0 0.130804 0 0 0 0 0.15 0 0 0 1 0"/>
<feBlend mode="normal" in2="effect1_dropShadow_134_717" result="effect2_dropShadow_134_717"/>
<feBlend mode="normal" in="SourceGraphic" in2="effect2_dropShadow_134_717" result="shape"/>
</filter>
<radialGradient id="paint0_radial_134_717" cx="0" cy="0" r="1" gradientUnits="userSpaceOnUse" gradientTransform="translate(6 6.28789) rotate(42.6143) scale(20.3823 21.4519)">
<stop stop-color="#4361EE"/>
<stop offset="1" stop-color="#292D32" stop-opacity="0"/>
</radialGradient>
</defs>
</svg>
