<svg width="15" height="15" viewBox="0 0 15 15" fill="none" xmlns="http://www.w3.org/2000/svg">
<g filter="url(#filter0_i_475_446)">
<path d="M14.7986 7.00196L7.99779 0.201187C7.86898 0.0723762 7.69416 0 7.51198 0C7.3298 0 7.155 0.0723793 7.02618 0.201187L0.20122 7.02614C-0.0670734 7.29444 -0.0670734 7.72946 0.20122 7.99775C0.335304 8.13184 0.5111 8.19894 0.687026 8.19894C0.862822 8.19894 1.03861 8.13184 1.17283 7.99775L2.41628 6.75417V13.3219C2.41628 13.8261 2.84098 14.252 3.34371 14.252H5.61078V9.40498C5.61078 9.20785 5.7878 9.06518 5.98494 9.06518H9.08374C9.28088 9.06518 9.42355 9.20785 9.42355 9.40498V14.252H11.6906C12.183 14.252 12.5837 13.8348 12.5837 13.3219V6.72999L13.8272 7.97345C14.0955 8.24174 14.5304 8.24174 14.7988 7.97345C15.0671 7.70515 15.0669 7.27025 14.7986 7.00196Z" fill="url(#paint0_linear_475_446)"/>
</g>
<path d="M9.67355 14.002H11.6906C12.0355 14.002 12.3337 13.7064 12.3337 13.3219V6.72999V6.12644L12.7605 6.55322L14.0039 7.79667C14.1746 7.96729 14.4512 7.96737 14.622 7.79667C14.622 7.79666 14.622 7.79664 14.622 7.79663M9.67355 14.002L14.622 7.79663M9.67355 14.002V9.40498C9.67355 9.06979 9.41896 8.81518 9.08374 8.81518H5.98494C5.68203 8.81518 5.36078 9.03955 5.36078 9.40498V14.002H3.34371C2.97973 14.002 2.66628 13.6887 2.66628 13.3219V6.75417V6.15058L2.2395 6.57741L0.996148 7.82088C0.910614 7.90633 0.799175 7.94894 0.687026 7.94894C0.574694 7.94894 0.463315 7.90629 0.377997 7.82098C0.207334 7.65031 0.207334 7.37358 0.377997 7.20292L7.20294 0.377975C7.20295 0.377971 7.20295 0.377968 7.20295 0.377964M9.67355 14.002L7.20295 0.377964M14.622 7.79663C14.7926 7.62607 14.7925 7.34949 14.6218 7.17874L7.82101 0.377964C7.73911 0.296061 7.62789 0.25 7.51198 0.25C7.39608 0.25 7.28488 0.296054 7.20295 0.377964M14.622 7.79663L7.20295 0.377964" stroke="url(#paint1_radial_475_446)" stroke-width="0.5"/>
<defs>
<filter id="filter0_i_475_446" x="0" y="0" width="15.9999" height="15.252" filterUnits="userSpaceOnUse" color-interpolation-filters="sRGB">
<feFlood flood-opacity="0" result="BackgroundImageFix"/>
<feBlend mode="normal" in="SourceGraphic" in2="BackgroundImageFix" result="shape"/>
<feColorMatrix in="SourceAlpha" type="matrix" values="0 0 0 0 0 0 0 0 0 0 0 0 0 0 0 0 0 0 127 0" result="hardAlpha"/>
<feOffset dx="1" dy="1"/>
<feGaussianBlur stdDeviation="1.5"/>
<feComposite in2="hardAlpha" operator="arithmetic" k2="-1" k3="1"/>
<feColorMatrix type="matrix" values="0 0 0 0 0.351493 0 0 0 0 0.39658 0 0 0 0 0.441667 0 0 0 1 0"/>
<feBlend mode="normal" in2="shape" result="effect1_innerShadow_475_446"/>
</filter>
<linearGradient id="paint0_linear_475_446" x1="7.49995" y1="-1.6436" x2="7.49995" y2="14.252" gradientUnits="userSpaceOnUse">
<stop stop-color="white"/>
<stop offset="1" stop-color="#D9D9D9"/>
</linearGradient>
<radialGradient id="paint1_radial_475_446" cx="0" cy="0" r="1" gradientUnits="userSpaceOnUse" gradientTransform="translate(-3.93312e-07 0.287887) rotate(42.6143) scale(20.3823 21.4519)">
<stop stop-color="#4361EE"/>
<stop offset="1" stop-color="#292D32" stop-opacity="0"/>
</radialGradient>
</defs>
</svg>
