<svg width="29" height="29" viewBox="0 0 29 29" fill="none" xmlns="http://www.w3.org/2000/svg">
<g id="Icon_Fight" filter="url(#filter0_dd_134_427)">
<path d="M19.675 18.3476H21V20.9998H18.3478V19.6749L16.8955 18.2203L15.3477 19.7681L13.8978 18.3158L14.5432 17.668L6.00028 9.12515V6.0002H9.12523L17.6681 14.5431L18.3159 13.8977L19.7682 15.3477L18.2204 16.8954L19.675 18.3476ZM17.8751 6L13.8205 10.0546L16.9454 13.1795L21 9.12495V6H17.8751ZM10.0546 13.8205L9.33181 14.5432L8.68405 13.8979L7.23176 15.3478L8.7795 16.8956L7.32498 18.3479H6V21.0001H8.65223V19.6751L10.1045 18.2206L11.6523 19.7683L13.1022 18.316L12.4568 17.6683L13.1796 16.9455L10.0546 13.8205Z" fill="#31353C"/>
<path d="M19.4984 18.5245L19.5716 18.5976H19.675H20.75V20.7498H18.5978V19.6749V19.5714L18.5247 19.4982L17.0724 18.0437L16.8956 17.8666L16.7187 18.0436L15.3479 19.4144L14.2509 18.3156L14.7203 17.8445L14.8964 17.6677L14.7199 17.4913L6.25028 9.0216V6.2502H9.02168L17.4913 14.7199L17.6678 14.8963L17.8446 14.7202L18.3157 14.2508L19.4145 15.3478L18.0436 16.7186L17.8667 16.8955L18.0438 17.0723L19.4984 18.5245ZM8.40223 19.6751V20.7501H6.25V18.5979H7.32498H7.42842L7.50162 18.5248L8.95614 17.0725L9.13319 16.8957L8.95628 16.7188L7.58545 15.348L8.68423 14.251L9.15536 14.7204L9.33213 14.8965L9.50858 14.72L10.0546 14.174L12.826 16.9455L12.2801 17.4915L12.1036 17.6679L12.2797 17.8447L12.7491 18.3159L11.6521 19.4146L10.2813 18.0438L10.1044 17.8669L9.92761 18.0439L8.47532 19.4985L8.40223 19.5717V19.6751ZM17.9786 6.25H20.75V9.0214L16.9454 12.826L14.174 10.0546L17.9786 6.25Z" stroke="url(#paint0_radial_134_427)" stroke-width="0.5"/>
</g>
<defs>
<filter id="filter0_dd_134_427" x="0.5" y="0.5" width="28" height="28.5" filterUnits="userSpaceOnUse" color-interpolation-filters="sRGB">
<feFlood flood-opacity="0" result="BackgroundImageFix"/>
<feColorMatrix in="SourceAlpha" type="matrix" values="0 0 0 0 0 0 0 0 0 0 0 0 0 0 0 0 0 0 127 0" result="hardAlpha"/>
<feOffset dx="-2" dy="-2"/>
<feGaussianBlur stdDeviation="1.75"/>
<feColorMatrix type="matrix" values="0 0 0 0 0.185417 0 0 0 0 0.211367 0 0 0 0 0.333333 0 0 0 1 0"/>
<feBlend mode="normal" in2="BackgroundImageFix" result="effect1_dropShadow_134_427"/>
<feColorMatrix in="SourceAlpha" type="matrix" values="0 0 0 0 0 0 0 0 0 0 0 0 0 0 0 0 0 0 127 0" result="hardAlpha"/>
<feMorphology radius="2" operator="dilate" in="SourceAlpha" result="effect2_dropShadow_134_427"/>
<feOffset dx="2" dy="2.5"/>
<feGaussianBlur stdDeviation="1.75"/>
<feColorMatrix type="matrix" values="0 0 0 0 0.123125 0 0 0 0 0.130804 0 0 0 0 0.15 0 0 0 1 0"/>
<feBlend mode="normal" in2="effect1_dropShadow_134_427" result="effect2_dropShadow_134_427"/>
<feBlend mode="normal" in="SourceGraphic" in2="effect2_dropShadow_134_427" result="shape"/>
</filter>
<radialGradient id="paint0_radial_134_427" cx="0" cy="0" r="1" gradientUnits="userSpaceOnUse" gradientTransform="translate(6 6.303) rotate(44.0769) scale(20.8796 22.0403)">
<stop stop-color="#4361EE"/>
<stop offset="1" stop-color="#292D32" stop-opacity="0"/>
</radialGradient>
</defs>
</svg>
