<svg width="29" height="25" viewBox="0 0 29 25" fill="none" xmlns="http://www.w3.org/2000/svg">
<g id="Icon_Chat" filter="url(#filter0_dd_134_437)">
<path id="Vector" d="M20.0608 8.20082H17.2109C17.0186 8.20082 16.8628 8.35663 16.8628 8.54884V13.1102C16.8628 13.3255 16.6876 13.5007 16.4721 13.5007H12.6052C12.525 13.5007 12.4472 13.5285 12.3851 13.5792L12.0297 13.8695C11.8828 13.9896 11.8591 14.2053 11.9765 14.3544C12.156 14.5823 12.4249 14.713 12.7141 14.713H15.6L17.2823 16.0873C17.3457 16.1391 17.4237 16.1658 17.5026 16.1658C17.5532 16.1658 17.6041 16.1547 17.6516 16.1322C17.773 16.0746 17.8505 15.9522 17.8505 15.8177V14.7129H20.0608C20.5786 14.7129 20.9999 14.2916 20.9999 13.7739L21 9.13975C21 8.62189 20.5787 8.20068 20.0608 8.20068V8.20082Z" fill="#31353C" stroke="url(#paint0_radial_134_437)" stroke-width="0.5"/>
<path id="Vector_2" d="M9.48014 12.4501V12.2001H9.23014H6.84857C6.5187 12.2001 6.25 11.9314 6.25 11.6016V6.84857C6.25 6.5187 6.5187 6.25 6.84857 6.25H14.8158C15.1457 6.25 15.4144 6.5187 15.4144 6.84857V11.6016C15.4144 11.9314 15.1457 12.2001 14.8158 12.2001H13.5659L11.3829 12.2001H11.2937L11.2247 12.2565L9.48014 13.6817V12.4501Z" fill="#31353C" stroke="url(#paint1_radial_134_437)" stroke-width="0.5"/>
</g>
<defs>
<filter id="filter0_dd_134_437" x="0.5" y="0.5" width="28.25" height="23.9158" filterUnits="userSpaceOnUse" color-interpolation-filters="sRGB">
<feFlood flood-opacity="0" result="BackgroundImageFix"/>
<feColorMatrix in="SourceAlpha" type="matrix" values="0 0 0 0 0 0 0 0 0 0 0 0 0 0 0 0 0 0 127 0" result="hardAlpha"/>
<feOffset dx="-2" dy="-2"/>
<feGaussianBlur stdDeviation="1.75"/>
<feColorMatrix type="matrix" values="0 0 0 0 0.185417 0 0 0 0 0.211367 0 0 0 0 0.333333 0 0 0 1 0"/>
<feBlend mode="normal" in2="BackgroundImageFix" result="effect1_dropShadow_134_437"/>
<feColorMatrix in="SourceAlpha" type="matrix" values="0 0 0 0 0 0 0 0 0 0 0 0 0 0 0 0 0 0 127 0" result="hardAlpha"/>
<feMorphology radius="2" operator="dilate" in="SourceAlpha" result="effect2_dropShadow_134_437"/>
<feOffset dx="2" dy="2.5"/>
<feGaussianBlur stdDeviation="1.75"/>
<feColorMatrix type="matrix" values="0 0 0 0 0.123125 0 0 0 0 0.130804 0 0 0 0 0.15 0 0 0 1 0"/>
<feBlend mode="normal" in2="effect1_dropShadow_134_437" result="effect2_dropShadow_134_437"/>
<feBlend mode="normal" in="SourceGraphic" in2="effect2_dropShadow_134_437" result="shape"/>
</filter>
<radialGradient id="paint0_radial_134_437" cx="0" cy="0" r="1" gradientUnits="userSpaceOnUse" gradientTransform="translate(11.9019 8.36158) rotate(40.2879) scale(11.9272 12.4268)">
<stop stop-color="#4361EE"/>
<stop offset="1" stop-color="#292D32" stop-opacity="0"/>
</radialGradient>
<radialGradient id="paint1_radial_134_437" cx="0" cy="0" r="1" gradientUnits="userSpaceOnUse" gradientTransform="translate(6 6.16039) rotate(38.5034) scale(12.3495 12.7089)">
<stop stop-color="#4361EE"/>
<stop offset="1" stop-color="#292D32" stop-opacity="0"/>
</radialGradient>
</defs>
</svg>
