<svg width="29" height="26" viewBox="0 0 29 26" fill="none" xmlns="http://www.w3.org/2000/svg">
<g id="Icon_Friends" filter="url(#filter0_dd_134_428)">
<path id="Vector" d="M15.7189 14.416C15.7179 14.4157 15.7168 14.4153 15.7158 14.415L12.6721 13.4021C12.6457 13.3944 12.6204 13.3823 12.5974 13.366C12.5313 13.3191 12.4921 13.2431 12.4921 13.1621V13.1619C12.4921 13.0816 12.5307 13.0061 12.5958 12.9592C12.6181 12.9431 12.6426 12.931 12.6681 12.9231C13.6934 12.5617 14.487 11.7361 14.8078 10.6971C15.1293 9.65523 14.937 8.52266 14.2897 7.64523L15.7189 14.416ZM15.7189 14.416C16.0327 14.5219 16.3057 14.7227 16.4999 14.9909C16.6948 15.2599 16.8006 15.5832 16.8026 15.9154V16.4408C16.8026 16.6415 16.6399 16.8041 16.4393 16.8041H6.61329C6.41569 16.8041 6.25448 16.6463 6.25 16.449V15.9251C6.25 15.5912 6.35489 15.2657 6.54999 14.9948L6.55002 14.9947C6.74346 14.726 7.01578 14.5244 7.32903 14.4176C7.33166 14.4168 7.33428 14.416 7.3369 14.4151L10.3896 13.3993C10.491 13.3655 10.5598 13.271 10.5606 13.164C10.5614 13.057 10.4941 12.9614 10.3931 12.9261C9.36376 12.5663 8.56657 11.739 8.24487 10.6971C7.92335 9.65525 8.11568 8.52265 8.76299 7.6452C9.41045 6.76775 10.436 6.25 11.5263 6.25C12.6166 6.25 13.6422 6.76779 14.2897 7.64521L15.7189 14.416Z" fill="#31353C" stroke="url(#paint0_radial_134_428)" stroke-width="0.5" stroke-linejoin="round"/>
<g id="Subtract">
<mask id="path-2-inside-1_134_428" fill="white">
<path fill-rule="evenodd" clip-rule="evenodd" d="M16.2588 12.7513L13.8909 13.0111L13.8908 13.0111L16.2588 12.7513ZM16.2708 12.7553L16.2588 12.7513L15.8112 12.6024C16.0988 12.1802 16.3256 11.7131 16.4799 11.2134L16.48 11.2131C16.9653 9.64035 16.675 7.93071 15.6979 6.60631L15.6978 6.60616C15.5409 6.39357 15.3694 6.19495 15.185 6.01132C15.2807 6.0038 15.377 6 15.4738 6C16.6435 6 17.7438 6.55549 18.4383 7.49679C19.1328 8.43809 19.3391 9.65312 18.9942 10.7708C18.6755 11.8028 17.9221 12.6385 16.9392 13.0645C16.7296 12.9378 16.5056 12.8339 16.2708 12.7553ZM19.7422 14.1778L17.3973 13.3974C17.5907 13.5648 17.7654 13.7548 17.9172 13.9644L17.9172 13.9644C18.3265 14.5295 18.5486 15.2085 18.5526 15.906L18.5526 15.9146H18.5526V16.4408C18.5526 16.6541 18.521 16.86 18.4622 17.0541H20.3868C20.7255 17.0541 21.0001 16.7795 21.0001 16.4408V15.9146C20.9979 15.53 20.8755 15.1558 20.6499 14.8442C20.4243 14.5327 20.1069 14.2998 19.7422 14.1777L19.7422 14.1778Z"/>
</mask>
<path fill-rule="evenodd" clip-rule="evenodd" d="M16.2588 12.7513L13.8909 13.0111L13.8908 13.0111L16.2588 12.7513ZM16.2708 12.7553L16.2588 12.7513L15.8112 12.6024C16.0988 12.1802 16.3256 11.7131 16.4799 11.2134L16.48 11.2131C16.9653 9.64035 16.675 7.93071 15.6979 6.60631L15.6978 6.60616C15.5409 6.39357 15.3694 6.19495 15.185 6.01132C15.2807 6.0038 15.377 6 15.4738 6C16.6435 6 17.7438 6.55549 18.4383 7.49679C19.1328 8.43809 19.3391 9.65312 18.9942 10.7708C18.6755 11.8028 17.9221 12.6385 16.9392 13.0645C16.7296 12.9378 16.5056 12.8339 16.2708 12.7553ZM19.7422 14.1778L17.3973 13.3974C17.5907 13.5648 17.7654 13.7548 17.9172 13.9644L17.9172 13.9644C18.3265 14.5295 18.5486 15.2085 18.5526 15.906L18.5526 15.9146H18.5526V16.4408C18.5526 16.6541 18.521 16.86 18.4622 17.0541H20.3868C20.7255 17.0541 21.0001 16.7795 21.0001 16.4408V15.9146C20.9979 15.53 20.8755 15.1558 20.6499 14.8442C20.4243 14.5327 20.1069 14.2998 19.7422 14.1777L19.7422 14.1778Z" fill="#31353C"/>
<path d="M13.8909 13.0111L13.6765 13.4628C13.7602 13.5025 13.8533 13.5182 13.9454 13.5081L13.8909 13.0111ZM13.8908 13.0111L13.8363 12.514C13.614 12.5384 13.4349 12.7075 13.3977 12.928C13.3606 13.1485 13.4743 13.3669 13.6764 13.4628L13.8908 13.0111ZM16.2708 12.7553L16.4295 12.2811L16.4275 12.2805L16.2708 12.7553ZM15.8112 12.6024L15.398 12.3209C15.3097 12.4505 15.2874 12.6139 15.3375 12.7624C15.3877 12.9109 15.5046 13.0273 15.6534 13.0768L15.8112 12.6024ZM16.4799 11.2134L16.0023 11.0653L16.0021 11.0658L16.4799 11.2134ZM16.48 11.2131L16.9576 11.3611L16.9577 11.3606L16.48 11.2131ZM15.6979 6.60631L16.1003 6.30948L16.0999 6.30893L15.6979 6.60631ZM15.6978 6.60616L15.2955 6.90304L15.2959 6.90354L15.6978 6.60616ZM15.185 6.01132L15.1459 5.51285C14.9512 5.52814 14.7832 5.65538 14.7158 5.83866C14.6483 6.02194 14.6938 6.22771 14.8321 6.36554L15.185 6.01132ZM18.4383 7.49679L18.8407 7.19996L18.8407 7.19992L18.4383 7.49679ZM18.9942 10.7708L19.4719 10.9183L19.4719 10.9183L18.9942 10.7708ZM16.9392 13.0645L16.6805 13.4924C16.8191 13.5762 16.9895 13.5877 17.138 13.5233L16.9392 13.0645ZM17.3973 13.3974L17.5551 12.923C17.3287 12.8477 17.0806 12.9428 16.9627 13.1502C16.8447 13.3576 16.8897 13.6194 17.0701 13.7755L17.3973 13.3974ZM19.7422 14.1778L19.5843 14.6522C19.7943 14.7221 20.0253 14.6456 20.152 14.4641C20.2788 14.2827 20.2712 14.0395 20.1334 13.8664L19.7422 14.1778ZM17.9172 13.9644L18.3332 13.6871C18.3296 13.6817 18.326 13.6764 18.3222 13.6711L17.9172 13.9644ZM17.9172 13.9644L17.5012 14.2418C17.5048 14.2471 17.5085 14.2525 17.5123 14.2577L17.9172 13.9644ZM18.5526 15.906L19.0525 15.9032V15.9031L18.5526 15.906ZM18.5526 15.9146V16.4146C18.6857 16.4146 18.8133 16.3615 18.9072 16.2671C19.001 16.1728 19.0533 16.0448 19.0526 15.9117L18.5526 15.9146ZM18.5526 15.9146V15.4146C18.2764 15.4146 18.0526 15.6384 18.0526 15.9146H18.5526ZM18.4622 17.0541L17.9837 16.9092C17.9378 17.0607 17.9664 17.225 18.0607 17.3521C18.155 17.4792 18.3039 17.5541 18.4622 17.5541V17.0541ZM21.0001 15.9146H21.5001L21.5001 15.9117L21.0001 15.9146ZM20.6499 14.8442L21.0548 14.551L21.0548 14.551L20.6499 14.8442ZM19.7422 14.1777L19.9009 13.7036C19.6908 13.6333 19.4596 13.7095 19.3326 13.891C19.2055 14.0724 19.213 14.3158 19.3509 14.4891L19.7422 14.1777ZM13.9454 13.5081L16.3133 13.2483L16.2042 12.2543L13.8363 12.5141L13.9454 13.5081ZM13.6764 13.4628L13.6765 13.4628L14.1053 12.5594L14.1052 12.5594L13.6764 13.4628ZM16.2042 12.2543L13.8363 12.514L13.9453 13.5081L16.3133 13.2483L16.2042 12.2543ZM16.102 13.2261L16.1141 13.2301L16.4275 12.2805L16.4155 12.2765L16.102 13.2261ZM15.6534 13.0768L16.1009 13.2257L16.4166 12.2769L15.9691 12.128L15.6534 13.0768ZM16.0021 11.0658C15.8627 11.5175 15.6578 11.9395 15.398 12.3209L16.2245 12.8839C16.5398 12.421 16.7885 11.9088 16.9576 11.3609L16.0021 11.0658ZM16.0024 11.0651L16.0023 11.0653L16.9575 11.3614L16.9576 11.3611L16.0024 11.0651ZM15.2956 6.90314C16.1784 8.09984 16.4407 9.64461 16.0022 11.0657L16.9577 11.3606C17.4899 9.6361 17.1715 7.76159 16.1003 6.30948L15.2956 6.90314ZM15.2959 6.90354L15.296 6.90369L16.0999 6.30893L16.0998 6.30878L15.2959 6.90354ZM14.8321 6.36554C14.9987 6.53144 15.1537 6.7109 15.2955 6.90304L16.1001 6.30928C15.9282 6.07623 15.74 5.85847 15.5379 5.65709L14.8321 6.36554ZM15.4738 5.5C15.3639 5.5 15.2545 5.50432 15.1459 5.51285L15.2242 6.50978C15.3068 6.50329 15.3901 6.5 15.4738 6.5V5.5ZM18.8407 7.19992C18.0518 6.13089 16.8022 5.5 15.4738 5.5V6.5C16.4847 6.5 17.4357 6.9801 18.036 7.79367L18.8407 7.19992ZM19.4719 10.9183C19.8637 9.64886 19.6293 8.26897 18.8407 7.19996L18.036 7.79362C18.6362 8.60721 18.8145 9.65737 18.5164 10.6234L19.4719 10.9183ZM17.138 13.5233C18.2544 13.0395 19.1101 12.0903 19.4719 10.9183L18.5164 10.6233C18.241 11.5153 17.5898 12.2376 16.7404 12.6058L17.138 13.5233ZM16.1121 13.2294C16.3118 13.2963 16.5023 13.3847 16.6805 13.4924L17.1978 12.6366C16.9569 12.491 16.6994 12.3715 16.4295 12.2811L16.1121 13.2294ZM17.2394 13.8719L19.5843 14.6522L19.9001 13.7033L17.5551 12.923L17.2394 13.8719ZM18.3222 13.6711C18.1476 13.4301 17.9468 13.2117 17.7244 13.0193L17.0701 13.7755C17.2346 13.9179 17.3831 14.0794 17.5123 14.2577L18.3222 13.6711ZM18.3332 13.6871L18.3332 13.6871L17.5012 14.2418L17.5012 14.2418L18.3332 13.6871ZM19.0525 15.9031C19.048 15.1013 18.7927 14.3208 18.3222 13.6711L17.5123 14.2577C17.8603 14.7383 18.0492 15.3156 18.0526 15.9089L19.0525 15.9031ZM19.0526 15.9117L19.0525 15.9032L18.0526 15.9088L18.0526 15.9174L19.0526 15.9117ZM18.5526 16.4146H18.5526V15.4146H18.5526V16.4146ZM19.0526 16.4408V15.9146H18.0526V16.4408H19.0526ZM18.9408 17.199C19.0136 16.9585 19.0526 16.7038 19.0526 16.4408H18.0526C18.0526 16.6045 18.0284 16.7616 17.9837 16.9092L18.9408 17.199ZM20.3868 16.5541H18.4622V17.5541H20.3868V16.5541ZM20.5001 16.4408C20.5001 16.5034 20.4493 16.5541 20.3868 16.5541V17.5541C21.0016 17.5541 21.5001 17.0557 21.5001 16.4408H20.5001ZM20.5001 15.9146V16.4408H21.5001V15.9146H20.5001ZM20.2449 15.1375C20.4093 15.3645 20.4985 15.6372 20.5001 15.9174L21.5001 15.9117C21.4973 15.4228 21.3416 14.947 21.0548 14.551L20.2449 15.1375ZM19.5834 14.6518C19.8493 14.7409 20.0806 14.9106 20.2449 15.1375L21.0548 14.551C20.7679 14.1548 20.3644 13.8587 19.9009 13.7036L19.5834 14.6518ZM20.1334 13.8664L20.1334 13.8663L19.3509 14.4891L19.351 14.4891L20.1334 13.8664Z" fill="url(#paint1_radial_134_428)" mask="url(#path-2-inside-1_134_428)"/>
</g>
</g>
<defs>
<filter id="filter0_dd_134_428" x="0.5" y="0.5" width="28.0001" height="24.5542" filterUnits="userSpaceOnUse" color-interpolation-filters="sRGB">
<feFlood flood-opacity="0" result="BackgroundImageFix"/>
<feColorMatrix in="SourceAlpha" type="matrix" values="0 0 0 0 0 0 0 0 0 0 0 0 0 0 0 0 0 0 127 0" result="hardAlpha"/>
<feOffset dx="-2" dy="-2"/>
<feGaussianBlur stdDeviation="1.75"/>
<feColorMatrix type="matrix" values="0 0 0 0 0.185417 0 0 0 0 0.211367 0 0 0 0 0.333333 0 0 0 1 0"/>
<feBlend mode="normal" in2="BackgroundImageFix" result="effect1_dropShadow_134_428"/>
<feColorMatrix in="SourceAlpha" type="matrix" values="0 0 0 0 0 0 0 0 0 0 0 0 0 0 0 0 0 0 127 0" result="hardAlpha"/>
<feMorphology radius="2" operator="dilate" in="SourceAlpha" result="effect2_dropShadow_134_428"/>
<feOffset dx="2" dy="2.5"/>
<feGaussianBlur stdDeviation="1.75"/>
<feColorMatrix type="matrix" values="0 0 0 0 0.123125 0 0 0 0 0.130804 0 0 0 0 0.15 0 0 0 1 0"/>
<feBlend mode="normal" in2="effect1_dropShadow_134_428" result="effect2_dropShadow_134_428"/>
<feBlend mode="normal" in="SourceGraphic" in2="effect2_dropShadow_134_428" result="shape"/>
</filter>
<radialGradient id="paint0_radial_134_428" cx="0" cy="0" r="1" gradientUnits="userSpaceOnUse" gradientTransform="translate(6 6.22329) rotate(44.0807) scale(15.3859 16.2413)">
<stop stop-color="#4361EE"/>
<stop offset="1" stop-color="#292D32" stop-opacity="0"/>
</radialGradient>
<radialGradient id="paint1_radial_134_428" cx="0" cy="0" r="1" gradientUnits="userSpaceOnUse" gradientTransform="translate(13.8908 6.22329) rotate(56.4078) scale(12.8494 12.509)">
<stop stop-color="#4361EE"/>
<stop offset="1" stop-color="#292D32" stop-opacity="0"/>
</radialGradient>
</defs>
</svg>
