<svg width="30" height="30" viewBox="0 -5 15 25" fill="none" xmlns="http://www.w3.org/2000/svg">
<path d="M15 2.56153V3.11201C14.8799 3.64962 14.6608 4.13951 14.2969 4.55848C14.1937 4.67713 14.0903 4.7961 13.9787 4.90649C11.1302 7.72709 8.27987 10.5461 5.42766 13.3632C5.33914 13.4494 5.23241 13.5147 5.11533 13.5542C3.66019 14.0257 2.20365 14.4928 0.74567 14.9557C0.382072 15.0729 0.0776717 14.9287 0.00947365 14.5936C-0.0139644 14.4793 0.00947369 14.3454 0.0428522 14.2303C0.459514 12.824 0.888712 11.4247 1.29742 10.0176H1.29731C1.37694 9.73574 1.52971 9.4798 1.74033 9.27617C4.36248 6.66377 6.97974 4.04586 9.59195 1.42241C10.2414 0.767295 10.9021 0.175799 11.8552 0H12.4449C12.4552 0.0292989 12.4646 0.0231241 12.4757 0.024903C13.3962 0.175785 14.0314 0.740608 14.5535 1.46633C14.7899 1.79478 14.9077 2.17354 15 2.56144L15 2.56153Z" fill="#F2F2F2"/>
</svg>
